<svg fill="#000000" xmlns="http://www.w3.org/2000/svg"  viewBox="0 0 50 50" width="50px" height="50px"><path d="M-0.738-88.593h2v-7.381l2.778,6.31c0.343,0.787,0.811,1.065,1.731,1.065c0.92,0,1.37-0.278,1.713-1.065l2.778-6.148v7.219h2v-7.561c0-0.726-0.289-1.078-0.884-1.259c-1.424-0.448-2.38-0.061-2.813,0.908l-2.849,6.417l-2.759-6.417c-0.415-0.969-1.388-1.356-2.813-0.908c-0.595,0.181-0.884,0.533-0.884,1.259V-88.593z" transform="translate(.738 121.593)"/><path d="M-86.444-115.416h2v4.224c-0.016,0.208,0.067,0.761,1.031,0.776c0.492,0.008,2.939,0,2.969,0v-5h2c0.008,0,0,6.217,0,6.243c0.01,1.533-1.904,1.731-2.785,1.757h-5.215v-1c0.01,0,4.987,0.001,5.001,0c1.133-0.12,0.999-0.744,0.999-0.933l0-0.067h-3.137c-1.74-0.016-2.849-0.782-2.862-1.656C-86.444-111.153-86.405-115.378-86.444-115.416z" transform="translate(100.444 142.416)"/><path d="M-148.496-91.557h5.008c0.656,0,1.294-0.137,1.8-0.375c0.844-0.387,1.192-0.912,1.192-1.6v-1.425c0-1.538-1.906-1.6-3-1.6h-2c-0.787,0-0.906-0.475-1-1v-1c0.094-0.4,0.269-0.938,0.962-1c0.805,0,5.038,0,5.038,0v-1h-4.756c-0.787,0-3.244,0.094-3.244,2v1.237c0,0.875,0.769,1.588,2.438,1.763c0.188,0.012,0.375,0.025,0.562,0.025c0,0,1.944-0.038,2-0.025c1.125,0,1,0.875,1,1v1c0,0.138-0.031,1-1.011,1c-0.075,0-4.989,0-4.989,0V-91.557z" transform="translate(171.496 124.557)"/><path d="M-266.656-93.599c0,1.207,0.682,1.884,2.492,2.02c0.169,0.011,0.339,0.022,0.508,0.022h5v-1h-4.62c-1.032,0-1.38-0.433-1.38-1.053v-6.947h-2V-93.599z" transform="translate(308.656 124.557)"/><path d="M-204.757-93.666v-5c0-1.063,0.521-1.796,1.996-2h0.7h3.591h0.547c1.475,0.204,2.167,0.937,2.167,2v4.981c0,0.862-0.224,1.324-0.954,1.624l1.549,1.394h-2.25l-1.115-1h-1.309l-2.225,0.013c-0.322,0-0.661-0.045-1.034-0.147C-204.214-92.106-204.757-92.694-204.757-93.666z M-202.757-93.666c0.102,0.486,0.493,1,1.188,1h1.942l-1.113-1h2.266l0.541,0.502c0,0,0.194-0.158,0.194-0.502s-0.017-5-0.017-5c-0.102-0.452-0.56-1-1.238-1h-2.574c-0.78,0-1.188,0.571-1.188,1.102V-93.666z" transform="translate(236.74 124.666)"/><path d="M-193.466,27.589c-1.074-0.029-1.894,0.071-2.595,0.366c-0.199,0.084-0.517,0.086-0.55,0.336c0.109,0.115,0.126,0.286,0.214,0.427c0.167,0.271,0.45,0.634,0.702,0.824c0.276,0.208,0.56,0.431,0.855,0.611c0.525,0.32,1.112,0.503,1.618,0.824c0.298,0.189,0.594,0.428,0.885,0.641c0.144,0.106,0.24,0.27,0.427,0.336c0-0.01,0-0.02,0-0.03c-0.098-0.125-0.124-0.297-0.214-0.428c-0.132-0.132-0.265-0.265-0.397-0.397c-0.388-0.515-0.881-0.968-1.404-1.343c-0.418-0.3-1.352-0.705-1.527-1.191c-0.01-0.01-0.02-0.02-0.031-0.031c0.296-0.033,0.643-0.141,0.916-0.214c0.459-0.123,0.869-0.091,1.343-0.214c0.214-0.061,0.427-0.122,0.641-0.183c0-0.041,0-0.081,0-0.122c-0.24-0.246-0.411-0.571-0.672-0.794c-0.684-0.582-1.43-1.164-2.198-1.649c-0.426-0.269-0.953-0.444-1.404-0.672c-0.152-0.077-0.419-0.117-0.519-0.244c-0.237-0.302-0.366-0.686-0.549-1.038c-0.383-0.738-0.76-1.544-1.099-2.32c-0.232-0.529-0.383-1.052-0.672-1.527c-1.386-2.279-2.879-3.655-5.19-5.007c-0.492-0.288-1.084-0.401-1.71-0.55c-0.336-0.02-0.672-0.041-1.008-0.061c-0.205-0.086-0.418-0.336-0.611-0.458c-0.766-0.484-2.73-1.536-3.297-0.153c-0.358,0.873,0.535,1.725,0.855,2.168c0.224,0.31,0.511,0.658,0.672,1.008c0.105,0.229,0.124,0.459,0.214,0.702c0.222,0.598,0.573,1.279,0.86,1.832c0.145,0.28,0.305,0.574,0.489,0.824c0.112,0.153,0.305,0.221,0.336,0.458c-0.189,0.264-0.199,0.673-0.305,1.008c-0.477,1.505-0.297,3.375,0.397,4.488c0.213,0.342,0.715,1.075,1.404,0.794c0.603-0.246,0.469-1.007,0.641-1.679c0.039-0.152,0.015-0.264,0.092-0.366c0,0.01,0,0.02,0,0.031c0.183,0.366,0.366,0.733,0.55,1.099c0.407,0.655,1.129,1.34,1.74,1.802c0.317,0.24,0.567,0.654,0.977,0.794c0-0.01,0-0.02,0-0.031c-0.01,0-0.02,0-0.031,0c-0.079-0.124-0.204-0.175-0.305-0.275c-0.239-0.234-0.505-0.525-0.702-0.794c-0.556-0.755-1.048-1.582-1.496-2.443c-0.214-0.411-0.4-0.864-0.58-1.282c-0.07-0.161-0.069-0.405-0.214-0.489c-0.198,0.306-0.488,0.554-0.641,0.916c-0.244,0.578-0.276,1.284-0.366,2.015c-0.054,0.019-0.03,0.006-0.061,0.03c-0.425-0.103-0.575-0.54-0.733-0.916c-0.4-0.95-0.474-2.479-0.122-3.572c0.091-0.283,0.502-1.174,0.336-1.435c-0.079-0.261-0.342-0.412-0.488-0.611c-0.182-0.246-0.363-0.571-0.489-0.855c-0.327-0.741-0.638-1.602-0.982-2.351c-0.165-0.358-0.443-0.72-0.672-1.038c-0.253-0.352-0.537-0.612-0.733-1.038c-0.07-0.151-0.165-0.394-0.061-0.55c0.033-0.105,0.079-0.149,0.183-0.183c0.177-0.137,0.67,0.045,0.855,0.122c0.49,0.203,0.898,0.397,1.313,0.672c0.199,0.132,0.4,0.387,0.641,0.458c0.092,0,0.183,0,0.275,0c0.43,0.099,0.911,0.031,1.313,0.153c0.71,0.216,1.346,0.551,1.923,0.916c1.76,1.111,3.199,2.693,4.183,4.58c0.158,0.304,0.227,0.594,0.366,0.916c0.281,0.65,0.636,1.319,0.916,1.954c0.279,0.634,0.552,1.274,0.947,1.802c0.208,0.277,1.01,0.426,1.374,0.58c0.255,0.108,0.674,0.22,0.916,0.366c0.462,0.279,0.91,0.611,1.343,0.916C-194.165,26.978-193.499,27.313-193.466,27.589z" transform="translate(241.59 -4.643)"/><path d="M-238.028-13.489c-0.224-0.004-0.382,0.024-0.55,0.061c0,0.01,0,0.02,0,0.031c0.01,0,0.02,0,0.031,0c0.107,0.219,0.295,0.361,0.427,0.55c0.102,0.214,0.203,0.427,0.305,0.641c0.01-0.01,0.02-0.02,0.03-0.03c0.189-0.133,0.276-0.346,0.275-0.672c-0.076-0.08-0.087-0.18-0.153-0.275C-237.749-13.311-237.918-13.383-238.028-13.489z" transform="translate(272.504 24.803)"/></svg>